<svg width="43" height="43" viewBox="0 0 43 43" fill="none" xmlns="http://www.w3.org/2000/svg">
<path d="M21.5 17.558V35.833M21.5 17.558C21.5 14.5477 21.5 13.0432 22.0858 11.8934C22.6012 10.882 23.4228 10.0595 24.4342 9.54415C25.584 8.95831 27.0894 8.95831 30.0996 8.95831H34.758C35.7614 8.95831 36.2635 8.95831 36.6467 9.15359C36.9839 9.32537 37.2573 9.59926 37.429 9.93638C37.6243 10.3196 37.625 10.8217 37.625 11.8252V27.5918C37.625 28.5952 37.6243 29.0963 37.429 29.4795C37.2573 29.8166 36.9844 30.0915 36.6473 30.2632C36.2644 30.4583 35.7634 30.4583 34.762 30.4583H29.6867C28.004 30.4583 27.1611 30.4583 26.3973 30.6902C25.7212 30.8956 25.0935 31.2318 24.5476 31.6805C23.931 32.1873 23.4637 32.8873 22.5303 34.2875L21.5 35.833M21.5 17.558C21.5 14.5477 21.4997 13.0432 20.9139 11.8934C20.3985 10.882 19.5762 10.0595 18.5648 9.54415C17.4151 8.95831 15.9096 8.95831 12.8993 8.95831H8.24097C7.23754 8.95831 6.73633 8.95831 6.35307 9.15359C6.01594 9.32537 5.74205 9.59926 5.57028 9.93638C5.375 10.3196 5.375 10.8217 5.375 11.8252V27.5918C5.375 28.5952 5.375 29.0963 5.57028 29.4795C5.74205 29.8166 6.01594 30.0915 6.35307 30.2632C6.73595 30.4583 7.23656 30.4583 8.23802 30.4583H13.3134C14.9961 30.4583 15.8373 30.4583 16.601 30.6902C17.2771 30.8956 17.9079 31.2318 18.4538 31.6805C19.0679 32.1852 19.5322 32.8817 20.4581 34.2705L21.5 35.833" stroke="#161616" stroke-width="2" stroke-linecap="round" stroke-linejoin="round"/>
</svg>
