<svg width="51" height="51" viewBox="0 0 51 51" fill="none" xmlns="http://www.w3.org/2000/svg">
<path d="M41.9167 35.917V24.3588C41.9167 23.2456 41.9157 22.6887 41.7803 22.1707C41.6604 21.7116 41.4635 21.2772 41.197 20.8847C40.8963 20.4417 40.4782 20.0744 39.6405 19.3413L29.6405 10.5913C28.085 9.23029 27.3073 8.55013 26.432 8.29129C25.6608 8.06322 24.8388 8.06322 24.0675 8.29129C23.1929 8.54994 22.4163 9.22945 20.8633 10.5884L10.8599 19.3413C10.0222 20.0744 9.60425 20.4417 9.30354 20.8847C9.03706 21.2772 8.83864 21.7116 8.71869 22.1707C8.58333 22.6887 8.58333 23.2456 8.58333 24.3588V35.917C8.58333 37.8584 8.58333 38.8288 8.9005 39.5945C9.32339 40.6154 10.134 41.4276 11.1549 41.8505C11.9207 42.1676 12.8914 42.1676 14.8328 42.1676C16.7742 42.1676 17.746 42.1676 18.5117 41.8505C19.5327 41.4276 20.3431 40.6156 20.7659 39.5947C21.0831 38.829 21.0833 37.8582 21.0833 35.9168V33.8335C21.0833 31.5323 22.9488 29.6668 25.25 29.6668C27.5512 29.6668 29.4167 31.5323 29.4167 33.8335V35.9168C29.4167 37.8582 29.4167 38.829 29.7338 39.5947C30.1567 40.6156 30.9673 41.4276 31.9883 41.8505C32.754 42.1676 33.7247 42.1676 35.6661 42.1676C37.6075 42.1676 38.5793 42.1676 39.345 41.8505C40.366 41.4276 41.1764 40.6154 41.5993 39.5945C41.9164 38.8288 41.9167 37.8584 41.9167 35.917Z" stroke="white" stroke-width="2" stroke-linecap="round" stroke-linejoin="round"/>
</svg>
